<mxfile host="app.diagrams.net" modified="2021-12-21T13:53:35.810Z" agent="5.0 (Macintosh; Intel Mac OS X 10_15_7) AppleWebKit/537.36 (KHTML, like Gecko) Chrome/96.0.4664.110 Safari/537.36" etag="vQqdrBF6AJNj8AFSQADs" version="16.0.0" type="github">
  <diagram name="Page-1" id="822b0af5-4adb-64df-f703-e8dfc1f81529">
    <mxGraphModel dx="2273" dy="700" grid="1" gridSize="10" guides="1" tooltips="1" connect="1" arrows="1" fold="1" page="1" pageScale="1" pageWidth="1100" pageHeight="850" background="none" math="0" shadow="0">
      <root>
        <mxCell id="0" />
        <mxCell id="1" parent="0" />
        <mxCell id="cFB7-Hs66JBOH01lwIre-7" value="" style="group" vertex="1" connectable="0" parent="1">
          <mxGeometry x="20" y="180" width="280" height="110" as="geometry" />
        </mxCell>
        <mxCell id="cFB7-Hs66JBOH01lwIre-6" value="Raspberry PI&lt;br&gt;Central API" style="rounded=1;whiteSpace=wrap;html=1;" vertex="1" parent="cFB7-Hs66JBOH01lwIre-7">
          <mxGeometry width="280" height="110" as="geometry" />
        </mxCell>
        <mxCell id="cFB7-Hs66JBOH01lwIre-4" value="" style="shape=image;html=1;verticalAlign=top;verticalLabelPosition=bottom;labelBackgroundColor=#ffffff;imageAspect=0;aspect=fixed;image=https://cdn1.iconfinder.com/data/icons/fruit-136/64/Fruit_iconfree_Filled_Outline_raspberry-healthy-organic-food-fruit_icon-128.png" vertex="1" parent="cFB7-Hs66JBOH01lwIre-7">
          <mxGeometry x="10" y="10" width="60" height="60" as="geometry" />
        </mxCell>
        <mxCell id="cFB7-Hs66JBOH01lwIre-9" value="" style="group" vertex="1" connectable="0" parent="1">
          <mxGeometry x="580" y="70" width="220" height="90" as="geometry" />
        </mxCell>
        <mxCell id="cFB7-Hs66JBOH01lwIre-8" value="Arduino&lt;br&gt;DCC Controller" style="rounded=1;whiteSpace=wrap;html=1;" vertex="1" parent="cFB7-Hs66JBOH01lwIre-9">
          <mxGeometry width="220" height="90" as="geometry" />
        </mxCell>
        <mxCell id="cFB7-Hs66JBOH01lwIre-3" value="" style="dashed=0;outlineConnect=0;html=1;align=center;labelPosition=center;verticalLabelPosition=bottom;verticalAlign=top;shape=mxgraph.weblogos.arduino;fillColor=#36868D;strokeColor=none" vertex="1" parent="cFB7-Hs66JBOH01lwIre-9">
          <mxGeometry x="10" y="5" width="67.4" height="32" as="geometry" />
        </mxCell>
        <mxCell id="cFB7-Hs66JBOH01lwIre-10" value="" style="group" vertex="1" connectable="0" parent="1">
          <mxGeometry x="580" y="190" width="220" height="90" as="geometry" />
        </mxCell>
        <mxCell id="cFB7-Hs66JBOH01lwIre-11" value="Arduino&lt;br&gt;DCC Controller" style="rounded=1;whiteSpace=wrap;html=1;" vertex="1" parent="cFB7-Hs66JBOH01lwIre-10">
          <mxGeometry width="220" height="90" as="geometry" />
        </mxCell>
        <mxCell id="cFB7-Hs66JBOH01lwIre-12" value="" style="dashed=0;outlineConnect=0;html=1;align=center;labelPosition=center;verticalLabelPosition=bottom;verticalAlign=top;shape=mxgraph.weblogos.arduino;fillColor=#36868D;strokeColor=none" vertex="1" parent="cFB7-Hs66JBOH01lwIre-10">
          <mxGeometry x="10" y="5" width="67.4" height="32" as="geometry" />
        </mxCell>
        <mxCell id="cFB7-Hs66JBOH01lwIre-13" value="" style="group" vertex="1" connectable="0" parent="1">
          <mxGeometry x="580" y="320" width="220" height="90" as="geometry" />
        </mxCell>
        <mxCell id="cFB7-Hs66JBOH01lwIre-14" value="Arduino&lt;br&gt;DCC Controller" style="rounded=1;whiteSpace=wrap;html=1;" vertex="1" parent="cFB7-Hs66JBOH01lwIre-13">
          <mxGeometry width="220" height="90" as="geometry" />
        </mxCell>
        <mxCell id="cFB7-Hs66JBOH01lwIre-15" value="" style="dashed=0;outlineConnect=0;html=1;align=center;labelPosition=center;verticalLabelPosition=bottom;verticalAlign=top;shape=mxgraph.weblogos.arduino;fillColor=#36868D;strokeColor=none" vertex="1" parent="cFB7-Hs66JBOH01lwIre-13">
          <mxGeometry x="10" y="5" width="67.4" height="32" as="geometry" />
        </mxCell>
        <mxCell id="cFB7-Hs66JBOH01lwIre-18" value="" style="group" vertex="1" connectable="0" parent="1">
          <mxGeometry x="380" y="70" width="120" height="350" as="geometry" />
        </mxCell>
        <mxCell id="cFB7-Hs66JBOH01lwIre-17" value="USB Hub" style="rounded=1;whiteSpace=wrap;html=1;" vertex="1" parent="cFB7-Hs66JBOH01lwIre-18">
          <mxGeometry width="120" height="350" as="geometry" />
        </mxCell>
        <mxCell id="cFB7-Hs66JBOH01lwIre-16" value="" style="fontColor=#0066CC;verticalAlign=top;verticalLabelPosition=bottom;labelPosition=center;align=center;html=1;outlineConnect=0;fillColor=#CCCCCC;strokeColor=#6881B3;gradientColor=none;gradientDirection=north;strokeWidth=2;shape=mxgraph.networks.hub;" vertex="1" parent="cFB7-Hs66JBOH01lwIre-18">
          <mxGeometry x="10" y="10" width="100" height="30" as="geometry" />
        </mxCell>
        <mxCell id="cFB7-Hs66JBOH01lwIre-21" value="" style="group" vertex="1" connectable="0" parent="1">
          <mxGeometry x="-320" y="120" width="280" height="100" as="geometry" />
        </mxCell>
        <mxCell id="cFB7-Hs66JBOH01lwIre-19" value="Web Server" style="rounded=1;whiteSpace=wrap;html=1;" vertex="1" parent="cFB7-Hs66JBOH01lwIre-21">
          <mxGeometry width="280" height="100" as="geometry" />
        </mxCell>
        <mxCell id="cFB7-Hs66JBOH01lwIre-20" value="" style="aspect=fixed;perimeter=ellipsePerimeter;html=1;align=center;shadow=0;dashed=0;spacingTop=3;image;image=img/lib/active_directory/web_server.svg;" vertex="1" parent="cFB7-Hs66JBOH01lwIre-21">
          <mxGeometry x="8.235294117647058" y="10" width="32.94117647058823" height="41.17647058823529" as="geometry" />
        </mxCell>
        <mxCell id="cFB7-Hs66JBOH01lwIre-24" value="" style="group" vertex="1" connectable="0" parent="1">
          <mxGeometry x="-320" y="265" width="280" height="85" as="geometry" />
        </mxCell>
        <mxCell id="cFB7-Hs66JBOH01lwIre-23" value="Local Controllers" style="rounded=1;whiteSpace=wrap;html=1;" vertex="1" parent="cFB7-Hs66JBOH01lwIre-24">
          <mxGeometry width="280" height="85" as="geometry" />
        </mxCell>
        <mxCell id="cFB7-Hs66JBOH01lwIre-22" value="" style="aspect=fixed;perimeter=ellipsePerimeter;html=1;align=center;shadow=0;dashed=0;spacingTop=3;image;image=img/lib/active_directory/domain_controller.svg;" vertex="1" parent="cFB7-Hs66JBOH01lwIre-24">
          <mxGeometry x="10" y="5" width="35" height="50" as="geometry" />
        </mxCell>
        <mxCell id="cFB7-Hs66JBOH01lwIre-25" value="" style="shape=flexArrow;endArrow=classic;html=1;rounded=0;entryX=-0.008;entryY=0.466;entryDx=0;entryDy=0;entryPerimeter=0;fillColor=#f8cecc;strokeColor=#b85450;" edge="1" parent="1" target="cFB7-Hs66JBOH01lwIre-17">
          <mxGeometry width="50" height="50" relative="1" as="geometry">
            <mxPoint x="300" y="234.5" as="sourcePoint" />
            <mxPoint x="370" y="234.5" as="targetPoint" />
          </mxGeometry>
        </mxCell>
        <mxCell id="cFB7-Hs66JBOH01lwIre-26" value="" style="shape=flexArrow;endArrow=classic;html=1;rounded=0;entryX=0;entryY=0.5;entryDx=0;entryDy=0;fillColor=#fff2cc;strokeColor=#d6b656;" edge="1" parent="1" target="cFB7-Hs66JBOH01lwIre-8">
          <mxGeometry width="50" height="50" relative="1" as="geometry">
            <mxPoint x="500" y="115" as="sourcePoint" />
            <mxPoint x="570" y="90" as="targetPoint" />
          </mxGeometry>
        </mxCell>
        <mxCell id="cFB7-Hs66JBOH01lwIre-27" value="" style="shape=flexArrow;endArrow=classic;html=1;rounded=0;entryX=0;entryY=0.5;entryDx=0;entryDy=0;exitX=1;exitY=0.471;exitDx=0;exitDy=0;exitPerimeter=0;fillColor=#fff2cc;strokeColor=#d6b656;" edge="1" parent="1" source="cFB7-Hs66JBOH01lwIre-17" target="cFB7-Hs66JBOH01lwIre-11">
          <mxGeometry width="50" height="50" relative="1" as="geometry">
            <mxPoint x="520" y="280" as="sourcePoint" />
            <mxPoint x="570" y="230" as="targetPoint" />
          </mxGeometry>
        </mxCell>
        <mxCell id="cFB7-Hs66JBOH01lwIre-28" value="" style="shape=flexArrow;endArrow=classic;html=1;rounded=0;entryX=0;entryY=0.5;entryDx=0;entryDy=0;fillColor=#fff2cc;strokeColor=#d6b656;" edge="1" parent="1" target="cFB7-Hs66JBOH01lwIre-14">
          <mxGeometry width="50" height="50" relative="1" as="geometry">
            <mxPoint x="500" y="365" as="sourcePoint" />
            <mxPoint x="530" y="480" as="targetPoint" />
          </mxGeometry>
        </mxCell>
        <mxCell id="cFB7-Hs66JBOH01lwIre-30" value="" style="endArrow=none;html=1;rounded=0;exitX=1;exitY=0.5;exitDx=0;exitDy=0;entryX=0;entryY=0.5;entryDx=0;entryDy=0;" edge="1" parent="1" source="cFB7-Hs66JBOH01lwIre-19" target="cFB7-Hs66JBOH01lwIre-6">
          <mxGeometry width="50" height="50" relative="1" as="geometry">
            <mxPoint x="30" y="130" as="sourcePoint" />
            <mxPoint x="80" y="80" as="targetPoint" />
          </mxGeometry>
        </mxCell>
        <mxCell id="cFB7-Hs66JBOH01lwIre-31" value="" style="endArrow=none;html=1;rounded=0;entryX=0;entryY=0.5;entryDx=0;entryDy=0;exitX=1;exitY=0.5;exitDx=0;exitDy=0;" edge="1" parent="1" source="cFB7-Hs66JBOH01lwIre-23" target="cFB7-Hs66JBOH01lwIre-6">
          <mxGeometry width="50" height="50" relative="1" as="geometry">
            <mxPoint x="-50" y="570" as="sourcePoint" />
            <mxPoint y="520" as="targetPoint" />
          </mxGeometry>
        </mxCell>
        <mxCell id="cFB7-Hs66JBOH01lwIre-34" value="" style="group" vertex="1" connectable="0" parent="1">
          <mxGeometry x="910" y="65" width="250" height="100" as="geometry" />
        </mxCell>
        <mxCell id="cFB7-Hs66JBOH01lwIre-33" value="Motor&lt;br&gt;Controller" style="rounded=1;whiteSpace=wrap;html=1;" vertex="1" parent="cFB7-Hs66JBOH01lwIre-34">
          <mxGeometry width="250" height="100" as="geometry" />
        </mxCell>
        <mxCell id="cFB7-Hs66JBOH01lwIre-32" value="" style="outlineConnect=0;dashed=0;verticalLabelPosition=bottom;verticalAlign=top;align=center;html=1;shape=mxgraph.aws3.servo;fillColor=#5294CF;gradientColor=none;" vertex="1" parent="cFB7-Hs66JBOH01lwIre-34">
          <mxGeometry x="10" y="10" width="84" height="60" as="geometry" />
        </mxCell>
        <mxCell id="cFB7-Hs66JBOH01lwIre-35" value="" style="shape=flexArrow;endArrow=classic;html=1;rounded=0;entryX=0;entryY=0.5;entryDx=0;entryDy=0;" edge="1" parent="1" source="cFB7-Hs66JBOH01lwIre-8" target="cFB7-Hs66JBOH01lwIre-33">
          <mxGeometry width="50" height="50" relative="1" as="geometry">
            <mxPoint x="620" y="540" as="sourcePoint" />
            <mxPoint x="670" y="490" as="targetPoint" />
          </mxGeometry>
        </mxCell>
        <mxCell id="cFB7-Hs66JBOH01lwIre-39" value="&lt;h1&gt;&lt;span style=&quot;font-size: 22px&quot;&gt;DCC Concept&lt;br&gt;&lt;/span&gt;&lt;span style=&quot;font-size: 22px ; font-weight: normal&quot;&gt;&lt;br&gt;&lt;/span&gt;&lt;font style=&quot;font-size: 13px ; font-weight: normal&quot;&gt;Arduino boards have the capability to control electronic devices and produce analogue signals. They also have the ability to use &#39;shields&#39; which can control other devices. The motor shield has been used before to produce a signal that Model railway DCC Controllers can understand, allowing digital control of the model.&lt;/font&gt;&lt;/h1&gt;" style="text;html=1;strokeColor=default;fillColor=none;spacing=5;spacingTop=-20;whiteSpace=wrap;overflow=hidden;rounded=0;" vertex="1" parent="1">
          <mxGeometry x="-320" y="380" width="560" height="195" as="geometry" />
        </mxCell>
      </root>
    </mxGraphModel>
  </diagram>
</mxfile>
